<svg width="27" height="27" viewBox="0 0 27 27" fill="none" xmlns="http://www.w3.org/2000/svg">
<g clip-path="url(#clip0_1_413)">
<path d="M13.5 6.75C13.5 3.02207 16.5221 0 20.25 0C23.9779 0 27 3.02207 27 6.75C27 10.4779 23.9779 13.5 20.25 13.5C16.5221 13.5 13.5 10.4779 13.5 6.75Z" fill="#BAE935"/>
<path d="M0 13.5H13.5V20.25C13.5 23.9779 10.4779 27 6.75 27C3.02208 27 0 23.9779 0 20.25V13.5Z" fill="#BAE935"/>
<path d="M13.5 20.25C13.5 16.5221 16.5221 13.5 20.25 13.5C23.9779 13.5 27 16.5221 27 20.25V27H13.5V20.25Z" fill="white" fill-opacity="0.13"/>
<path d="M0 6.75C0 3.02207 3.02208 0 6.75 0C10.4779 0 13.5 3.02207 13.5 6.75C13.5 10.4779 10.4779 13.5 6.75 13.5C3.02208 13.5 0 10.4779 0 6.75Z" fill="white" fill-opacity="0.13"/>
</g>
<defs>
<clipPath id="clip0_1_413">
<rect width="27" height="27" fill="white"/>
</clipPath>
</defs>
</svg>
