<?xml version="1.0" encoding="iso-8859-1"?>
<!-- Uploaded to: SVG Repo, www.svgrepo.com, Generator: SVG Repo Mixer Tools -->
<svg height="800px" width="800px" version="1.1" id="Layer_1" xmlns="http://www.w3.org/2000/svg" xmlns:xlink="http://www.w3.org/1999/xlink" 
	 viewBox="0 0 391.455 391.455" xml:space="preserve">
<polygon style="fill:#80D440;" points="8,162.41 383.6,8.41 228.8,382.81 174.8,216.01 "/>
<path id="pointerArrow" style="fill:#80D440;" d="M228.8,390.81C228.8,390.81,228.4,390.81,228.8,390.81c-3.6,0-6.4-2.4-7.6-5.6l-52.8-162.8
	L5.6,170.01c-3.2-1.2-5.6-4-5.6-7.2s2-6.4,4.8-7.6l375.6-154c2.8-1.2,6.4-0.4,8.8,1.6c2.4,2.4,2.8,5.6,1.6,8.8L236,386.01
	C234.8,388.81,232,390.81,228.8,390.81z M31.2,161.61l146,46.8c2.4,0.8,4.4,2.8,5.2,5.2l47.2,146l139.2-336.4L31.2,161.61z"/>
<polygon  style="fill:#67CB1B;" points="225.2,361.21 368,22.81 180,210.81 "/>
<g>
	<path  style="fill:#6EA62A;" d="M200.4,198.41c-2,0-4-0.8-5.6-2.4c-3.2-3.2-3.2-8,0-11.2l8.4-8.4c3.2-3.2,8-3.2,11.2,0s3.2,8,0,11.2
		l-8.4,8.4C204.4,197.61,202.4,198.41,200.4,198.41z"/>
	<path   style="fill:#6EA62A;" d="M234.4,164.81c-2,0-4-0.8-5.6-2.4c-3.2-3.2-3.2-8,0-11.2l144-144.4c3.2-3.2,8-3.2,11.2,0
		s3.2,8,0,11.2l-144,144.4C238.4,164.01,236.4,164.81,234.4,164.81z"/>


    <path id="cardFlake" d="M10.79 7.74L7.62 5.8L10.79 3.86C10.84 3.83 10.88 3.78 10.9 3.72C10.91 3.65 10.9 3.59 10.87 3.53L9.94 2.01C9.87 1.9 9.72 1.86 9.61 1.93L6.58 3.78L6.58 0.24C6.58 0.1 6.47 0 6.34 0L4.56 0C4.43 0 4.32 0.1 4.32 0.24L4.32 3.78L1.29 1.93C1.18 1.86 1.03 1.9 0.96 2.01L0.03 3.53C0 3.59 -0.01 3.65 0 3.72C0.02 3.78 0.06 3.83 0.11 3.86L3.28 5.8L0.11 7.74C0.06 7.77 0.02 7.83 0 7.89C-0.01 7.95 0 8.02 0.03 8.07L0.96 9.59C1.03 9.71 1.18 9.74 1.29 9.67L4.32 7.82L4.32 11.37C4.32 11.5 4.43 11.61 4.56 11.61L6.34 11.61C6.47 11.61 6.58 11.5 6.58 11.37L6.58 7.82L9.61 9.67C9.72 9.74 9.87 9.71 9.94 9.59L10.87 8.07C10.9 8.02 10.91 7.95 10.9 7.89C10.88 7.83 10.84 7.77 10.79 7.74Z" fill="#C8F31D" fill-opacity="1.000000" fill-rule="nonzero"/>
    <path id="Card4" d="M69.84 45.55L45.61 -0.22C45.38 -0.66 44.92 -0.94 44.43 -0.94C44 -0.94 43.48 -0.68 43.24 -0.24L34.83 14.95L26.76 -0.25C26.53 -0.69 26.07 -0.99 25.57 -0.99L25.57 -0.99C25.07 -0.99 24.62 -0.69 24.38 -0.25L0.15 45.53C-0.07 45.95 -0.06 46.44 0.19 46.84C0.43 47.25 0.87 47.48 1.34 47.48L13.46 47.48C14.2 47.48 14.8 46.87 14.8 46.13C14.8 45.39 14.2 44.78 13.46 44.78L3.58 44.78L25.57 3.26L33.28 17.75L8.24 63.02C8.01 63.44 8.02 63.92 8.26 64.33C8.5 64.74 8.94 64.98 9.42 64.98L59.23 64.98C59.7 64.98 60.14 64.75 60.38 64.35C60.62 63.94 60.64 63.45 60.41 63.03L54.74 52.37C54.39 51.72 53.58 51.47 52.92 51.82C52.27 52.17 52.02 52.96 52.37 53.62L56.98 62.28L11.7 62.28L34.79 20.57L45 39.79C45.35 40.44 46.16 40.7 46.82 40.35C47.48 40 47.73 39.19 47.38 38.53L36.34 17.79L44.39 3.21L66.41 44.78L25.57 44.78C24.83 44.78 24.23 45.39 24.23 46.13C24.23 46.87 24.83 47.48 25.57 47.48L68.65 47.48C69.12 47.48 69.56 47.25 69.8 46.85C70.05 46.44 70.06 45.96 69.84 45.55Z" fill="#FFFFFF" fill-opacity="1.000000" fill-rule="nonzero"/>
    <path id="Card3" d="M39 78.09C38.51 78.09 38.07 77.77 37.92 77.31L31.57 57.46L12.65 66.85C12.21 67.07 11.69 66.98 11.35 66.64C11.01 66.3 10.92 65.78 11.14 65.34L20.53 46.42L0.68 40.07C0.22 39.92 -0.1 39.48 -0.1 39C-0.1 38.51 0.22 38.07 0.68 37.92L20.53 31.57L11.14 12.65C10.92 12.21 11.01 11.69 11.35 11.35C11.69 11.01 12.21 10.92 12.65 11.14L31.57 20.53L37.92 0.68C38.07 0.22 38.51 -0.1 39 -0.1C39.48 -0.1 39.92 0.22 40.07 0.68L46.42 20.53L65.34 11.14C65.78 10.92 66.3 11.01 66.64 11.35C66.98 11.69 67.07 12.21 66.85 12.65L57.46 31.57L77.31 37.92C77.77 38.07 78.09 38.51 78.09 39C78.09 39.48 77.77 39.92 77.31 40.07L57.46 46.42L66.81 65.26C66.91 65.43 66.97 65.63 66.97 65.84C66.97 66.46 66.47 66.96 65.85 66.97C65.68 66.97 65.51 66.93 65.34 66.85L46.42 57.46L40.07 77.31C39.92 77.77 39.48 78.09 39 78.09ZM32.25 54.75C32.39 54.75 32.54 54.78 32.68 54.83C32.99 54.96 33.22 55.22 33.32 55.53L39 73.27L44.67 55.53C44.77 55.21 45 54.96 45.31 54.83C45.61 54.71 45.95 54.72 46.25 54.86L63.35 63.35L54.86 46.24C54.72 45.95 54.71 45.61 54.83 45.31C54.96 45 55.22 44.77 55.53 44.67L73.27 39L55.53 33.32C55.21 33.22 54.96 32.99 54.83 32.68C54.71 32.38 54.72 32.04 54.86 31.75L63.35 14.64L46.25 23.13C45.95 23.27 45.61 23.28 45.31 23.16C45 23.03 44.77 22.77 44.67 22.46L39 4.72L33.32 22.46C33.22 22.77 32.99 23.03 32.68 23.16C32.38 23.28 32.04 23.27 31.75 23.13L14.64 14.64L23.13 31.75C23.27 32.04 23.28 32.38 23.16 32.68C23.03 32.99 22.77 33.22 22.46 33.32L4.72 39L22.46 44.67C22.78 44.77 23.03 45 23.16 45.31C23.28 45.61 23.27 45.95 23.13 46.24L14.64 63.35L31.75 54.86C31.9 54.78 32.07 54.75 32.25 54.75Z" fill="#FFFFFF" fill-opacity="1.000000" fill-rule="nonzero"/>
    <path id="Card2" d="M78.58 12.42C78.54 12.25 78.46 12.1 78.34 11.97C78.22 11.85 78.06 11.77 77.89 11.73L39.26 -0.56C39.09 -0.62 38.9 -0.62 38.73 -0.56L0.1 11.73C-0.07 11.77 -0.22 11.85 -0.35 11.97C-0.47 12.1 -0.55 12.25 -0.59 12.42C-0.6 12.48 -0.6 12.54 -0.6 12.6L-0.6 65.4C-0.6 65.45 -0.6 65.51 -0.59 65.57C-0.56 65.72 -0.48 65.87 -0.38 65.98C-0.27 66.1 -0.14 66.18 0.01 66.23L0.1 66.26L38.65 78.52L38.73 78.55C38.9 78.61 39.09 78.61 39.26 78.55L39.34 78.52L77.98 66.23C78.16 66.18 78.31 66.06 78.42 65.91C78.54 65.76 78.6 65.58 78.6 65.4L78.6 12.6C78.59 12.54 78.59 12.48 78.58 12.42ZM39 1.2L74.81 12.6L39 23.99L3.18 12.6L39 1.2ZM1.16 13.79L38.12 25.56L38.12 76.51L1.16 64.75L1.16 13.79ZM76.84 64.75L39.88 76.51L39.88 25.56L76.84 13.79L76.84 64.75Z" fill="#FFFFFF" fill-opacity="1.000000" fill-rule="nonzero"/>
    <path id="Card1" d="M38.05 89.29C37.85 89.29 37.65 89.23 37.47 89.12L0.5 65.77C0.19 65.57 0 65.22 0 64.85L0 23.99C0 23.61 0.19 23.27 0.5 23.07L37.47 -0.28C37.83 -0.5 38.28 -0.5 38.63 -0.28L75.61 23.07C75.92 23.27 76.11 23.61 76.11 23.99L76.11 64.85C76.11 65.22 75.92 65.57 75.61 65.77L38.63 89.12C38.45 89.23 38.25 89.29 38.05 89.29ZM23.33 77.63L38.05 86.93L73.95 64.26L73.95 45.99L57.62 35.68L57.62 55.12C57.62 55.49 57.43 55.84 57.12 56.03L23.33 77.63ZM2.16 64.26L21.31 76.35L36.14 66.87L18.99 56.04C18.67 55.84 18.48 55.49 18.48 55.12L18.48 14.27L2.16 24.58L2.16 64.26ZM20.65 54.53L38.16 65.59L55.46 54.53L55.46 34.31L38.05 23.32L20.65 34.31L20.65 54.53ZM73.95 43.43L73.95 24.58L38.05 1.91L20.65 12.9L20.65 31.75L37.47 21.12C37.83 20.9 38.28 20.9 38.63 21.12L73.95 43.43Z" fill="#FFFFFF" fill-opacity="1.000000" fill-rule="nonzero"/>
    <path id="calendar" fill="#bae935" d="M3 9H21M7 3V5M17 3V5M6 13H8M6 17H8M11 13H13M11 17H13M16 13H18M16 17H18M6.2 21H17.8C18.9201 21 19.4802 21 19.908 20.782C20.2843 20.5903 20.5903 20.2843 20.782 19.908C21 19.4802 21 18.9201 21 17.8V8.2C21 7.07989 21 6.51984 20.782 6.09202C20.5903 5.71569 20.2843 5.40973 19.908 5.21799C19.4802 5 18.9201 5 17.8 5H6.2C5.0799 5 4.51984 5 4.09202 5.21799C3.71569 5.40973 3.40973 5.71569 3.21799 6.09202C3 6.51984 3 7.07989 3 8.2V17.8C3 18.9201 3 19.4802 3.21799 19.908C3.40973 20.2843 3.71569 20.5903 4.09202 20.782C4.51984 21 5.07989 21 6.2 21Z" stroke="#000000" stroke-width="2" stroke-linecap="round" stroke-linejoin="round"/>
      <path
      id="bar"
    fill-rule="evenodd"
    clip-rule="evenodd"
    d="M2.49998 4.09998C2.27906 4.09998 2.09998 4.27906 2.09998 4.49998C2.09998 4.72089 2.27906 4.89998 2.49998 4.89998H12.5C12.7209 4.89998 12.9 4.72089 12.9 4.49998C12.9 4.27906 12.7209 4.09998 12.5 4.09998H2.49998ZM2.49998 6.09998C2.27906 6.09998 2.09998 6.27906 2.09998 6.49998C2.09998 6.72089 2.27906 6.89998 2.49998 6.89998H12.5C12.7209 6.89998 12.9 6.72089 12.9 6.49998C12.9 6.27906 12.7209 6.09998 12.5 6.09998H2.49998ZM2.09998 8.49998C2.09998 8.27906 2.27906 8.09998 2.49998 8.09998H12.5C12.7209 8.09998 12.9 8.27906 12.9 8.49998C12.9 8.72089 12.7209 8.89998 12.5 8.89998H2.49998C2.27906 8.89998 2.09998 8.72089 2.09998 8.49998ZM2.49998 10.1C2.27906 10.1 2.09998 10.2791 2.09998 10.5C2.09998 10.7209 2.27906 10.9 2.49998 10.9H12.5C12.7209 10.9 12.9 10.7209 12.9 10.5C12.9 10.2791 12.7209 10.1 12.5 10.1H2.49998Z"
    
  />
</g>
</svg>